<?xml version="1.0" encoding="utf-8"?>
<!-- Generator: Adobe Illustrator 23.0.1, SVG Export Plug-In . SVG Version: 6.00 Build 0)  -->
<svg version="1.1" id="Layer_1" xmlns="http://www.w3.org/2000/svg" xmlns:xlink="http://www.w3.org/1999/xlink" x="0px" y="0px"
	 viewBox="0 0 189 206" style="enable-background:new 0 0 189 206;" xml:space="preserve">
<style type="text/css">
	.st0{fill:#F46C77;stroke:#FFFFFF;stroke-width:2.1088;stroke-miterlimit:10;}
</style>
<g>
	<g>
		<path d="M44.69,53.43h19.02c19.97,0,33.1,10.46,33.1,34.1c0,23.68-13.14,34.74-32.22,34.74h-19.9
			C44.69,122.27,44.69,53.43,44.69,53.43z M62.85,109.72c10.71,0,17.99-5.72,17.99-22.19c0-16.44-7.28-21.56-17.99-21.56h-2.58
			v43.74L62.85,109.72L62.85,109.72z"/>
	</g>
</g>
<g>
	<g>
		<path d="M97.43,88.31c0-17.44,12.9-27.5,26.72-27.5s26.72,10.05,26.72,27.5c0,17.39-12.9,27.44-26.72,27.44
			C110.33,115.75,97.43,105.69,97.43,88.31z M134.96,88.31c0-9.09-3.65-14.95-10.81-14.95s-10.81,5.86-10.81,14.95
			c0,9.06,3.65,14.89,10.81,14.89C131.31,103.2,134.96,97.37,134.96,88.31z"/>
	</g>
</g>
<g>
	<g>
		<path d="M57.86,159.72v20.64H44.8V123.5h13.06v20.64h55.77v15.58H57.86L57.86,159.72z"/>
	</g>
</g>
<g>
	<g>
		<path d="M97.79,149.96c0-17.15,13.22-27.44,27.26-27.44c16.16,0,24.67,10.91,24.67,25.15c0,2.85-0.44,5.66-0.65,6.96h-39.76
			v-10.42h29.25l-2.45,2.96c0-8.41-3.66-12.83-10.54-12.83c-7.68,0-12.72,5.2-12.72,15.62c0,10.87,5.92,15.65,16.1,15.65
			c4.75,0,8.85-1.29,13.5-3.64l5.15,9.36c-5.99,3.84-13.75,6.13-20.77,6.13C110.51,177.47,97.79,167.38,97.79,149.96z"/>
	</g>
</g>
<path class="st0" d="M157.39,40.87c-1.84,0-3.46-1.27-3.86-3.07c-1.33-5.97-6.52-9.89-12.75-9.89c-7.36,0-13.07,5.3-13.09,12.96
	c0,7.67,5.71,12.96,13.09,12.96c4.4,0,8.26-1.95,10.63-5.18c0.72-0.99,1.9-1.53,3.13-1.53h0c2.19,0,3.97,1.78,3.97,3.97V186.5
	c0,2.19-1.78,3.97-3.97,3.97H42.21c-2.19,0-3.97-1.78-3.97-3.97V51.08c0-2.19,1.78-3.97,3.97-3.97l48.78,0
	c1.23,0,2.42,0.55,3.14,1.54c2.35,3.23,6.2,5.17,10.65,5.17c7.24,0,13.07-5.29,13.07-12.96c0-7.65-5.82-12.96-13.07-12.96
	c-6.33,0-11.45,3.91-12.76,9.87c-0.4,1.81-2.01,3.09-3.86,3.09l-51.19,0c-2.19,0-3.97,1.78-3.97,3.97v147.91
	c0,2.19,1.78,3.97,3.97,3.97h122.81c2.19,0,3.97-1.78,3.97-3.97V44.84c0-2.19-1.78-3.97-3.97-3.97H157.39z"/>
</svg>
