<?xml version="1.0" encoding="utf-8"?>
<!-- Generator: Adobe Illustrator 23.0.1, SVG Export Plug-In . SVG Version: 6.00 Build 0)  -->
<svg version="1.1" id="Layer_1" xmlns="http://www.w3.org/2000/svg" xmlns:xlink="http://www.w3.org/1999/xlink" x="0px" y="0px"
	 viewBox="0 0 739.45 769.77" style="enable-background:new 0 0 739.45 769.77;" xml:space="preserve">
<style type="text/css">
	.st0{fill:#5B6772;}
	.st1{fill:#E26F6F;}
	.st2{fill:#FFFFFF;}
	.st3{fill:#FFF3A1;}
	.st4{fill:#F2BDBA;}
	.st5{fill:#F2BDBA;stroke:#FFFFFF;stroke-width:2;stroke-miterlimit:10;}
	.st6{fill:#131314;}
	.st7{fill:#EC8C92;}
	.st8{fill:#E59D9D;}
</style>
<title>doc_robot</title>
<g id="hair">
	<path class="st0" d="M502.09,74.84L502.09,74.84c-27.89-27.88-69.78-36.31-106.28-21.39c-6.9,2.84-14.84,1.27-20.13-4L364.4,38.17
		c-50.9-50.9-133.42-50.9-184.32,0s-50.9,133.42,0,184.32l129.84,129.84c0,0,48.22,6.44,58.95-4.29l133.22-134.71
		C540.33,175.09,540.33,113.08,502.09,74.84z"/>
</g>
<g id="uniform">
	<path class="st1" d="M620.23,183.88c-57.42-23.71-107.22,20.09-149.99,52.39c-37,27.95-132.48,102.27-136.56,105.45
		c-4.08-3.18-99.58-77.5-136.56-105.45c-42.77-32.3-92.57-76.1-150-52.39c-38.2,15.77-62.91,59.46-35.46,107.1
		C61,376.61,159.35,537.13,159.35,537.13c13.4,22.36,37.49,36.13,63.56,36.34c6.57,0.06,58.4,0,110.77,0s104.2,0.06,110.78,0
		c26.07-0.21,50.14-13.98,63.54-36.34c0,0,98.35-160.52,147.69-246.16C683.14,243.34,658.43,199.65,620.23,183.88z"/>
</g>
<g id="robot">
	<path class="st0" d="M205.16,534.96h272.3c4.45,0,8.05,3.6,8.05,8.05v83.48c0,4.45-3.6,8.05-8.05,8.05h-272.3
		c-4.45,0-8.05-3.6-8.05-8.05v-83.48C197.11,538.56,200.71,534.96,205.16,534.96z"/>
	<path class="st2" d="M253.31,629.11c-2.02,1.6-4.91,1.46-6.76-0.33c-9.08-8.74-20.68-12.53-31.93-16.2
		c-10.87-3.55-21.14-6.9-27.21-14.66c-4.87-6.21-6.36-17.4-4-29.92c3.62-19.37,15.33-36.27,32.19-46.46l5.22,8.35
		c-20.38,12.23-26.08,32-27.58,39.9c-2.06,10.85-0.43,19,2.09,22.17c4.21,5.38,12.66,8.13,22.44,11.33
		c11.87,3.87,25.16,8.21,35.9,18.62c1.9,1.86,1.93,4.9,0.07,6.8C253.6,628.85,253.45,628.98,253.31,629.11L253.31,629.11z"/>
	<path class="st3" d="M215.81,593.97c-1.38,0.02-2.48,1.16-2.45,2.55c0.02,1.38,1.16,2.48,2.54,2.45l0,0h0.1
		c7.79-0.28,34.61,1,52.94,30c0.46,0.72,1.26,1.16,2.12,1.16c0.47,0,0.93-0.13,1.33-0.38c1.17-0.74,1.52-2.28,0.78-3.45l0,0
		C253.37,595.03,224.24,593.65,215.81,593.97z M231.1,584.15c-1.38-0.19-2.65,0.78-2.84,2.16c-0.19,1.38,0.78,2.65,2.16,2.84l0,0
		c0.33,0,33.64,5,48.33,33.22c0.64,1.23,2.14,1.71,3.37,1.07s1.71-2.14,1.07-3.37c-15.94-30.63-50.65-35.73-52.12-35.93
		L231.1,584.15z M251.22,582.15c-0.53,1.27,0.08,2.73,1.35,3.25c0,0,0.01,0,0.01,0.01c0.21,0.08,20.24,8.39,26.17,19.7
		c0.43,0.82,1.29,1.34,2.22,1.34c0.4,0,0.8-0.1,1.16-0.29c1.22-0.65,1.69-2.16,1.05-3.38c-6.78-12.93-27.81-21.64-28.7-22
		c-1.27-0.55-2.74,0.04-3.28,1.31c0,0,0,0.01-0.01,0.01L251.22,582.15z M270.91,580.69c-1.31-0.45-2.73,0.24-3.18,1.55
		c-0.45,1.31,0.24,2.73,1.55,3.18c0.1,0.03,0.2,0.06,0.3,0.08c0.1,0,10.49,3,15.64,12.19c0.44,0.79,1.28,1.28,2.18,1.28
		c0.43,0,0.85-0.11,1.22-0.32c1.21-0.65,1.67-2.16,1.02-3.37c-0.01-0.01-0.01-0.02-0.02-0.03c-6.23-11.05-18.23-14.47-18.74-14.61
		L270.91,580.69z M205.81,615.85c-1.25-0.59-2.75-0.05-3.34,1.21c-0.59,1.25-0.05,2.75,1.21,3.34c0.1,0.04,0.19,0.08,0.29,0.12
		c0.1,0,9.84,3.92,15.6,9.68c0.46,0.47,1.1,0.74,1.76,0.74c1.39-0.01,2.5-1.14,2.49-2.53c-0.01-0.65-0.26-1.28-0.72-1.74
		C216.6,620.17,206.23,616.03,205.81,615.85z M204.24,579.56c0.43,0.33,10.9,7.83,32.15-6.85c9.92-6.85,21.74-9.19,32.44-6.41
		c8.66,2.12,15.94,7.96,19.89,15.95c0.43,0.85,1.3,1.39,2.25,1.39c0.38,0,0.76-0.09,1.1-0.26c1.24-0.61,1.75-2.11,1.14-3.35l0,0
		c-4.6-9.3-13.06-16.09-23.13-18.57c-12.1-3.14-25.42-0.54-36.53,7.14c-17.82,12.3-26.12,7.09-26.34,6.94
		c-1.1-0.83-2.67-0.6-3.5,0.5s-0.6,2.67,0.5,3.5L204.24,579.56z M275.07,554.56c0.19,0.09,18.5,9.06,25.19,20.22
		c0.71,1.18,2.25,1.57,3.43,0.86s1.57-2.25,0.86-3.43c-7.45-12.42-26.49-21.76-27.29-22.15c-1.24-0.6-2.74-0.09-3.35,1.16
		C273.31,552.46,273.83,553.96,275.07,554.56L275.07,554.56z M291.99,549.97c0.1,0.06,10.11,5.35,12.82,13.47
		c0.39,1.33,1.77,2.09,3.1,1.7s2.09-1.77,1.7-3.1c-0.02-0.06-0.04-0.12-0.06-0.18c-3.34-10-14.76-16.07-15.25-16.32
		c-1.25-0.59-2.74-0.06-3.33,1.19C290.42,547.91,290.86,549.32,291.99,549.97L291.99,549.97z M409.54,592.1
		c-13.91-23.16-33.25-35.4-55.92-35.4l0,0c-23.53,0-41.9,12.31-53.12,35.61c-5.22,11.06-8.54,22.92-9.83,35.08
		c-0.11,1.38,0.92,2.59,2.3,2.69c1.38,0.11,2.59-0.92,2.7-2.3c1.29-11.58,4.47-22.88,9.41-33.43
		c10.48-21.67,26.82-32.65,48.57-32.65c21.08,0,38.43,11.06,51.57,32.87c6.16,10.45,10.74,21.76,13.59,33.55
		c0.24,1.16,1.26,2,2.45,2c0.17,0.02,0.35,0.02,0.52,0c1.36-0.29,2.22-1.62,1.94-2.98c0-0.01,0-0.02-0.01-0.02
		c-2.94-12.31-7.72-24.11-14.17-35V592.1z M352.3,572.84c-0.65,0-1.3,0-2,0.07c-13.81,1-26.08,9.52-35.5,24.77
		c-7.82,12.66-11,25.48-11.38,29.71c-0.11,1.38,0.92,2.59,2.3,2.7c1.38,0.11,2.59-0.92,2.7-2.31c0.3-3.68,3.39-15.71,10.66-27.48
		c6-9.63,16.26-21.34,31.59-22.41c28.77-2,55.71,50.3,56,50.83c0.43,0.84,1.29,1.36,2.23,1.36c0.39,0,0.78-0.09,1.13-0.27
		c1.23-0.62,1.72-2.13,1.1-3.36c-1.14-2.21-27.64-53.59-58.83-53.59V572.84z M352.71,587.21h-0.06c-10.22,0-19.68,7-27.35,20.22
		c-3.53,6.15-6.35,12.69-8.4,19.48c-0.38,1.32,0.38,2.69,1.69,3.07c0.01,0,0.02,0.01,0.03,0.01c0.22,0.06,0.45,0.1,0.68,0.1
		c1.12,0,2.11-0.75,2.41-1.83c0.1-0.36,10.37-36,31-36l0,0c12.8,0,25.14,26.15,28.82,36.23c0.47,1.3,1.91,1.97,3.21,1.49
		c1.3-0.47,1.97-1.91,1.49-3.2c-0.59-1.65-14.61-39.55-33.52-39.55V587.21z M352.62,609.51c-12.89,1.46-18.43,18-18.66,18.73
		c-0.43,1.31,0.29,2.72,1.6,3.15c0.25,0.09,0.51,0.13,0.78,0.13c1.08,0,2.04-0.7,2.37-1.73c0.05-0.14,4.74-14.21,14.47-15.31
		c9.07-1.06,13,15,13,15.11c0.32,1.34,1.67,2.18,3.01,1.86s2.18-1.67,1.86-3.01c-0.15-0.82-4.96-20.47-18.43-18.91V609.51z
		 M415.69,588.83c0.05,1.35,1.15,2.41,2.5,2.41h0.09c1.38-0.05,2.45-1.2,2.41-2.58c-0.56-15.66-4.59-31.13-6.3-37.06
		c-0.38-1.33-1.77-2.09-3.1-1.71c-1.33,0.38-2.09,1.77-1.71,3.1c1.66,5.77,5.57,20.76,6.11,35.86V588.83z M430.59,559.19
		c-1.36,0.21-2.3,1.47-2.12,2.83c1.65,11.5,7,49.89,6.9,61c-0.01,1.38,1.1,2.51,2.48,2.53l0,0c1.37,0,2.49-1.11,2.5-2.48
		c0.12-11.16-4.82-46.91-6.95-61.77c-0.21-1.35-1.46-2.28-2.81-2.09V559.19z M446.34,560.19c-1.35,0.25-2.25,1.55-2,2.91
		c0.06,0.35,6.44,35.5,6.18,45.48c-0.03,1.38,1.06,2.53,2.44,2.57h0.06c1.36,0,2.47-1.08,2.5-2.44c0.28-10.49-6-45-6.26-46.51
		c-0.26-1.35-1.57-2.24-2.92-1.99L446.34,560.19z M467.12,562.47c-0.23-1.36-1.52-2.28-2.89-2.04c-1.36,0.23-2.28,1.52-2.04,2.89
		c0,0.23,3.93,23.24,4.21,33.16c0.04,1.35,1.15,2.43,2.5,2.43h0.07c1.38-0.04,2.46-1.19,2.43-2.57c-0.3-10.25-4.11-32.88-4.28-33.84
		L467.12,562.47L467.12,562.47z"/>
	<path class="st2" d="M453.43,629.9L453.43,629.9c-2.58-0.74-4.07-3.42-3.33-6c0.08-0.29,0.19-0.57,0.33-0.84
		c6-11.45,17.45-16,27.67-20.08c11.43-4.56,21.3-8.5,24.26-20.73c3.48-14.35-5.73-28.33-14.07-37.52c-5.97-6.51-12.69-12.3-20-17.26
		l5.5-8.17c1.91,1.22,46.67,30.52,38.27,65.21c-4.14,17.13-18,22.66-30.22,27.54c-9.65,3.85-18.15,7.24-22.52,15.45
		C458.18,629.61,455.71,630.61,453.43,629.9z"/>
	<rect x="312.21" y="528.56" class="st2" width="49.84" height="2"/>
	<rect x="182.31" y="644.55" class="st2" width="289.08" height="2"/>
</g>
<g id="girl">
	<path class="st4" d="M367.66,287.32v-43.66h-62.65v43.66c0,11.38-9.22,29.61-20.6,29.61l51.63,56l52.22-56
		C376.89,316.97,367.66,298.7,367.66,287.32z"/>
	<path class="st5" d="M395.39,159.53L395.39,159.53c-4.12-0.01-7.52-3.21-7.78-7.32c-1-16.34-7.36-55.16-43.35-65.84
		c-7.99,45.47-43.55,81.1-89,89.19c-1.22,3.03-1.85,6.27-1.85,9.54l0,0c0,14.13,11.45,25.58,25.58,25.58l0,0h7.82v16.55
		c0,13.42,6.77,25.93,18,33.28l10.67,7c13.23,8.64,30.31,8.64,43.54,0l10.77-7c11.25-7.35,18.03-19.89,18.02-33.33v-16.5h7.6
		c14.13,0,25.58-11.45,25.58-25.58l0,0l0,0c0-14.12-11.45-25.57-25.57-25.57C395.41,159.53,395.4,159.53,395.39,159.53z"/>
	<path class="st6" d="M294.22,207.21c-22.05,0-39.92-17.87-39.92-39.92s17.87-39.92,39.92-39.92s39.92,17.87,39.92,39.92l0,0
		C334.1,189.32,316.25,207.17,294.22,207.21z M294.22,129.37c-20.94,0-37.92,16.98-37.92,37.92s16.98,37.92,37.92,37.92
		c20.94,0,37.92-16.98,37.92-37.92l0,0C332.1,146.37,315.14,129.41,294.22,129.37z"/>
	<path class="st2" d="M236.06,178.24c-7.41,0-14.8-0.73-22.06-2.2c-0.55-0.11-0.91-0.65-0.8-1.2s0.65-0.91,1.2-0.8l0,0
		c59.02,11.87,116.48-26.36,128.35-85.38c2.64-13.13,2.84-26.62,0.58-39.82c-0.1-0.54,0.27-1.06,0.81-1.16h0.01
		c0.54-0.09,1.06,0.28,1.15,0.82c10.35,60.42-30.24,117.8-90.67,128.15C248.5,177.7,242.28,178.23,236.06,178.24z"/>
	<path class="st6" d="M381.22,207.21c-22.05,0-39.92-17.87-39.92-39.92s17.87-39.92,39.92-39.92s39.92,17.87,39.92,39.92l0,0
		C421.1,189.32,403.25,207.17,381.22,207.21z M381.22,129.37c-20.94,0-37.92,16.98-37.92,37.92s16.98,37.92,37.92,37.92
		c20.94,0,37.92-16.98,37.92-37.92l0,0C419.1,146.37,402.14,129.41,381.22,129.37z"/>
	<path d="M376.52,174.97h-6.21c-2.42,0-4.39-1.97-4.39-4.39l0,0l0,0c-0.01-4.14,3.34-7.49,7.48-7.5h0.01l0,0
		c4.14,0,7.5,3.36,7.5,7.5l0,0C380.91,173,378.94,174.97,376.52,174.97z"/>
	<path d="M305.43,174.97h-6.21c-2.42,0-4.39-1.97-4.39-4.39l0,0l0,0c-0.01-4.14,3.34-7.49,7.48-7.5h0.01l0,0
		c4.14,0,7.5,3.36,7.5,7.5l0,0C309.81,173,307.85,174.96,305.43,174.97z"/>
	<path class="st6" d="M336.93,232.43c-7.98,0-15.09-5.06-17.71-12.6l1.89-0.65c3.04,8.73,12.58,13.35,21.31,10.31
		c4.83-1.68,8.63-5.48,10.31-10.31l1.89,0.66C352,227.37,344.9,232.42,336.93,232.43z"/>
	<path class="st7" d="M428.1,507.97l-29-12.35c-10.05-4.28-21.71-0.43-27.23,9l-0.4,0.69c-5.63,9.64-2.38,22.03,7.27,27.66
		c0.33,0.19,0.66,0.37,0.99,0.54l8.58,4.46c5.45,2.78,12.09,1.51,16.13-3.08L428.1,507.97z"/>
	<path class="st4" d="M503.46,494.62c-14.71-36.41-36.1-51.38-52.58-57.46c-12.8-4.63-27.1,0.28-34.34,11.81
		c-11.42,18-29.05,46.49-33.94,58.22c-3.7,8.89,1.68,23.22,15.87,22.89c-3.83,10.8,11.81,18.17,24.26,13.94
		c-1.58,8.45,13.51,12.51,21.16,8.31c5.3,8.47,25.78,9.32,53.71-22.62C506.01,520.05,508.27,506.49,503.46,494.62z"/>
	
		<rect x="389.81" y="344.64" transform="matrix(0.5255 -0.8508 0.8508 0.5255 -65.9407 573.0537)" class="st6" width="181.93" height="2"/>
	<path class="st0" d="M388.81,505.97c-15.33,0-19.12-4.87-19.12-4.87c-8.74-31.42,10.71-84.18,10.71-84.18
		c14.71-2.87,35.21,11.36,35.21,32.11l0.25,24.81C415.94,485.97,407.11,505.97,388.81,505.97z"/>
	<path class="st8" d="M379.35,500.43L379.35,500.43c-11.88,3-21.58-4.48-21.66-16.67l-0.25-39.08
		c-0.08-12.18,9.49-24.46,21.37-27.44l0,0c11.89-3,21.58,4.49,21.66,16.67l0.25,39.08C400.81,485.17,391.23,497.46,379.35,500.43z"
		/>
	<path class="st0" d="M389.31,444.14l-21.27,4.83c-0.94,0.23-1.89-0.34-2.12-1.28c-0.05-0.19-0.06-0.39-0.04-0.59l0,0
		c0.01-1.33,0.89-2.49,2.16-2.86l21.27-4.8c0.95-0.23,1.89,0.36,2.12,1.3c0.04,0.19,0.06,0.38,0.04,0.58l0,0
		C391.44,442.63,390.57,443.77,389.31,444.14z"/>
	<path class="st0" d="M389.31,469.08l-21.27,4.8c-0.94,0.23-1.89-0.34-2.12-1.28c-0.05-0.2-0.06-0.4-0.04-0.6l0,0
		c0.01-1.32,0.89-2.48,2.16-2.85l21.27-4.8c0.94-0.23,1.89,0.34,2.12,1.28c0.05,0.2,0.06,0.4,0.04,0.6l0,0
		C391.46,467.55,390.58,468.71,389.31,469.08z"/>
	<path class="st0" d="M384.37,442.5c0,3.72-2.53,7.31-5.73,8s-5.8-1.74-5.83-5.46s2.54-7.31,5.73-8S384.34,438.77,384.37,442.5z"/>
	<path class="st0" d="M384.37,468.04c0,3.72-2.53,7.31-5.73,8s-5.8-1.74-5.83-5.46s2.54-7.31,5.73-8S384.34,464.31,384.37,468.04z"
		/>
	<path class="st7" d="M246.52,507.97l29-12.35c10.05-4.28,21.71-0.43,27.23,9l0.41,0.69c5.63,9.65,2.37,22.04-7.28,27.67
		c-0.32,0.19-0.65,0.36-0.98,0.53l-8.6,4.46c-5.45,2.78-12.08,1.51-16.12-3.08L246.52,507.97z"/>
	<path class="st6" d="M405.6,528.78l-0.79-1.81c7.4-3.08,13.93-7.94,19-14.16l1.55,1.27C420.09,520.54,413.3,525.59,405.6,528.78z"
		/>
	<path class="st6" d="M429.65,541.82l-1-1.75c6.55-3.71,12.28-8.71,16.86-14.69l1.58,1.22
		C442.35,532.79,436.42,537.96,429.65,541.82z"/>
	<path class="st6" d="M448.96,550.67l-1.06-1.7c5.72-3.71,10.86-8.27,15.23-13.5l1.52,1.3
		C460.14,542.16,454.85,546.84,448.96,550.67z"/>
	<path class="st4" d="M170.72,495.71c14.72-37.2,36.37-52.41,53-58.55c12.81-4.62,27.1,0.3,34.36,11.81
		c11.41,18,29.05,46.49,33.93,58.22c3.7,8.89-1.67,23.22-15.87,22.89c3.83,10.8-11.8,18.17-24.26,13.94
		c1.59,8.45-13.51,12.51-21.15,8.31c-5.35,8.54-26.16,9.34-54.48-23.5C168.39,519.68,166.26,506.92,170.72,495.71z"/>
	
		<rect x="191.74" y="254.97" transform="matrix(0.8506 -0.5258 0.5258 0.8506 -152.0017 152.7098)" class="st6" width="2" height="177.76"/>
	<path class="st0" d="M285.81,505.97c15.34,0,19.13-4.87,19.13-4.87c8.73-31.42-10.71-84.18-10.71-84.18
		c-14.71-2.87-35.21,11.36-35.21,32.11l-0.21,24.8C258.68,485.97,267.51,505.97,285.81,505.97z"/>
	<path class="st8" d="M295.27,500.43L295.27,500.43c11.88,3,21.58-4.48,21.65-16.67l0.26-39.08c0.07-12.18-9.5-24.46-21.38-27.44
		l0,0c-11.88-3-21.58,4.49-21.65,16.67l-0.26,39.06C273.81,485.17,283.38,497.46,295.27,500.43z"/>
	<path class="st6" d="M267.16,527.97c-7.34-3.42-13.76-8.54-18.72-14.94l1.58-1.23c4.77,6.16,10.94,11.08,18,14.36L267.16,527.97z"
		/>
	<path class="st6" d="M242.81,540.51c-6.67-4.23-12.45-9.73-17-16.19l1.63-1.15c4.38,6.23,9.94,11.55,16.37,15.64L242.81,540.51z"/>
	<path class="st6" d="M223.24,549.07c-4.96-3.57-9.45-7.74-13.38-12.42l1.53-1.3c3.81,4.55,8.18,8.61,13,12.08L223.24,549.07z"/>
	<path class="st2" d="M300.42,502.09c-1.82,0-3.64-0.24-5.4-0.69l0,0c-12.28-3.07-22.21-15.82-22.13-28.43l0.26-39.08
		c0-6.19,2.43-11.43,6.74-14.77s10.08-4.39,16.16-2.87c12.28,3.08,22.21,15.82,22.13,28.42l-0.26,39.08
		c0,6.18-2.43,11.43-6.74,14.77C308.1,500.88,304.31,502.14,300.42,502.09z M295.51,499.47c5.47,1.36,10.59,0.47,14.44-2.51
		s5.94-7.65,6-13.2l0.26-39.08c0.07-11.73-9.18-23.6-20.62-26.47c-5.46-1.37-10.59-0.48-14.44,2.51s-5.94,7.64-6,13.2l-0.26,39.05
		c-0.07,11.73,9.18,23.6,20.62,26.47V499.47z"/>
	<path class="st0" d="M322.07,435.65c-1.13-3.24-4.68-4.95-7.92-3.83l-20.46,6.94c-1.84,0.84-2.97,2.72-2.83,4.74
		c0,3.32,2.26,6.53,5.11,7.16c0.6,0.13,1.23,0.13,1.83,0c0.43-0.1,20.44-7.1,20.44-7.1C321.48,442.43,323.19,438.89,322.07,435.65z"
		/>
	<path class="st0" d="M322.07,460.41c-1.13-3.24-4.68-4.95-7.92-3.83c0,0-20.17,6.84-20.46,6.95c-1.84,0.83-2.97,2.72-2.83,4.73
		c0,3.33,2.26,6.54,5.11,7.17c0.6,0.13,1.23,0.13,1.83,0c0.43-0.1,20.44-7.1,20.44-7.1C321.48,467.2,323.2,463.66,322.07,460.41
		L322.07,460.41z"/>
	<path class="st2" d="M412.73,438.59c-2.24-5.9-6.14-11.03-11.21-14.79l1.2-1.59c5.38,3.98,9.51,9.42,11.88,15.68L412.73,438.59z"/>
	<path class="st2" d="M261.37,440.11l-1.91-0.6c1.94-6.06,5.53-11.46,10.35-15.6l1.32,1.5C266.58,429.31,263.2,434.4,261.37,440.11z
		"/>
	<path class="st2" d="M374.19,502.09c-3.88,0.06-7.67-1.19-10.75-3.55c-4.31-3.34-6.71-8.59-6.75-14.77l-0.25-39.08
		c-0.08-12.6,9.85-25.34,22.13-28.42c6.07-1.52,11.81-0.5,16.15,2.87s6.71,8.58,6.75,14.77l0.25,39.08
		c0.08,12.59-9.85,25.34-22.13,28.41l0,0C377.83,501.85,376.01,502.09,374.19,502.09z M383.96,417.59c-1.65,0-3.3,0.21-4.9,0.62
		c-11.45,2.87-20.7,14.74-20.62,26.47l0.25,39.08c0,5.55,2.16,10.24,6,13.2s9,3.87,14.45,2.51l0,0
		c11.44-2.87,20.69-14.74,20.61-26.47l-0.28-39.03c0-5.56-2.16-10.24-6-13.2C390.75,418.68,387.4,417.56,383.96,417.59z"/>
	<path class="st2" d="M256.09,176.13c-0.48,0.01-0.9-0.33-1-0.8c-4.44-21.6,9.46-42.7,31.06-47.14c12.33-2.54,25.13,0.89,34.54,9.24
		c0.45,0.32,0.55,0.95,0.22,1.4c-0.32,0.45-0.95,0.55-1.4,0.22c-0.05-0.04-0.1-0.08-0.14-0.13c-15.69-13.89-39.67-12.43-53.56,3.26
		c-7.9,8.93-11.15,21.05-8.76,32.74c0.11,0.54-0.24,1.07-0.78,1.18l0,0C256.21,176.12,256.15,176.13,256.09,176.13z"/>
	<path class="st2" d="M419.35,176.13c-0.07,0.01-0.13,0.01-0.2,0c-0.54-0.11-0.89-0.64-0.78-1.18l0,0
		c4.18-20.57-9.1-40.63-29.67-44.81c-1.78-0.36-3.58-0.6-5.39-0.7c-0.55-0.03-0.98-0.5-0.95-1.05s0.5-0.98,1.05-0.95
		c22.06,1.26,38.91,20.17,37.65,42.22c-0.11,1.91-0.36,3.8-0.74,5.68C420.23,175.8,419.82,176.13,419.35,176.13z"/>
	
		<rect x="306.25" y="281.43" transform="matrix(0.7386 -0.6742 0.6742 0.7386 -149.8751 296.4018)" class="st6" width="2" height="120.04"/>
	<polygon class="st6" points="281,339.76 246.26,338.38 242.09,278.89 244.09,278.75 248.13,336.46 281.08,337.76 	"/>
	<polygon class="st6" points="361.56,402.22 270.17,370.78 275.33,353.96 277.24,354.55 272.64,369.52 362.21,400.33 	"/>
	<polygon class="st6" points="383.36,339.76 383.29,337.76 416.24,336.46 420.28,278.75 422.28,278.89 418.11,338.38 	"/>
	<polygon class="st6" points="354.07,384.58 353.42,382.69 391.72,369.52 386.73,353.27 388.65,352.69 394.2,370.78 	"/>
	
		<rect x="320.24" y="335.42" transform="matrix(0.6845 -0.729 0.729 0.6845 -128.4357 376.074)" class="st6" width="100.07" height="2"/>
</g>
</svg>
