<?xml version="1.0" encoding="utf-8"?>
<!-- Generator: Adobe Illustrator 23.0.1, SVG Export Plug-In . SVG Version: 6.00 Build 0)  -->
<svg version="1.1" id="Layer_1" xmlns="http://www.w3.org/2000/svg" xmlns:xlink="http://www.w3.org/1999/xlink" x="0px" y="0px"
	 viewBox="0 0 602.82 834.01" style="enable-background:new 0 0 602.82 834.01;" xml:space="preserve">
<style type="text/css">
	.st0{fill:#E59D9D;}
	.st1{fill:#E26F6F;}
	.st2{fill:#FFFFFF;}
	.st3{fill:#A8A7A7;}
	.st4{fill:#EC8C92;}
	.st5{fill:#F2BDBA;}
	.st6{fill:#5B5959;}
	.st7{fill:#274D76;}
	.st8{fill:#93B4F6;}
	.st9{fill:#FFF3A1;}
</style>
<title>man and cat</title>
<g id="cloud">
	<path class="st0" d="M545.02,114.98h-11.45c0.02-38.66-31.3-70.02-69.96-70.04c-12.2-0.01-24.19,3.17-34.78,9.23
		C405.64,6.4,348.12-13.52,300.36,9.66c-30.2,14.66-50.56,44-53.73,77.42h-7.56c-39.57,0.14-71.61,32.18-71.75,71.75l0,0
		c0.13,39.57,32.18,71.62,71.75,71.76h305.95c31.88-0.11,57.7-25.93,57.8-57.81l0,0C602.71,140.9,576.9,115.09,545.02,114.98z"/>
	<path class="st1" d="M509.04,183.75h-3.81c-1.85-8.03-9.85-13.04-17.88-11.2c-1.53,0.35-2.99,0.94-4.34,1.75
		c-0.9-13.16-12.29-23.1-25.45-22.2c-11.68,0.8-21.06,9.94-22.15,21.59h-7.69c-8.4,0-15.21,6.81-15.21,15.21
		c0,8.4,6.81,15.21,15.21,15.21h81.32c5.62,0.01,10.18-4.55,10.19-10.17v-0.01l0,0C519.23,188.31,514.67,183.75,509.04,183.75
		C509.05,183.75,509.04,183.75,509.04,183.75z"/>
	<path class="st1" d="M419.79,100.25h-7.34c-0.73-11.57-10.71-20.36-22.29-19.63c-3.94,0.25-7.73,1.6-10.93,3.91
		c-2.3-17.98-18.75-30.7-36.74-28.39c-13.33,1.71-24.28,11.37-27.62,24.39h-3.76c-14.34,0-25.97,11.61-26,25.95l0,0
		c0.03,14.34,11.66,25.95,26,25.95h108.73c8.88,0.22,16.26-6.8,16.49-15.68s-6.8-16.26-15.68-16.49c-0.27-0.01-0.53-0.01-0.8,0
		L419.79,100.25z"/>
	<path class="st1" d="M233.61,152.34h-4.58c-1.41-10.25-10.86-17.42-21.12-16.01c-1.56,0.21-3.09,0.63-4.55,1.22
		c-1.4-14.88-14.6-25.8-29.48-24.4c-13.96,1.32-24.61,13.08-24.52,27.11c0,0.35,0,0.69,0,1h-3.62c-11.14,0.02-20.17,9.06-20.16,20.2
		l0,0c0,11.15,9.04,20.19,20.19,20.2h87.84c8.1,0,14.67-6.57,14.67-14.67v-0.01l0,0C248.26,158.89,241.7,152.34,233.61,152.34z"/>
	
		<rect x="265.97" y="207.81" transform="matrix(0.4327 -0.9015 0.9015 0.4327 -30.801 368.6747)" class="st2" width="23.16" height="2"/>
	
		<rect x="282.25" y="174.1" transform="matrix(0.4327 -0.9015 0.9015 0.4327 8.7305 364.0808)" class="st2" width="22.83" height="2"/>
	
		<rect x="298.67" y="145.81" transform="matrix(0.4327 -0.9015 0.9015 0.4327 41.9672 360.311)" class="st2" width="17.23" height="2"/>
	
		<rect x="295.49" y="217.25" transform="matrix(0.4327 -0.9015 0.9015 0.4327 -25.02 396.7437)" class="st2" width="14.51" height="2"/>
	
		<rect x="306.34" y="192.61" transform="matrix(0.4327 -0.9015 0.9015 0.4327 3.894 393.3992)" class="st2" width="16.41" height="2"/>
	
		<rect x="328.87" y="199.96" transform="matrix(0.4327 -0.9015 0.9015 0.4327 8.6965 415.749)" class="st2" width="11.66" height="2"/>
	
		<rect x="338.39" y="174.72" transform="matrix(0.4327 -0.9015 0.9015 0.4327 38.3533 412.3841)" class="st2" width="16.94" height="2"/>
	
		<rect x="351.09" y="151.8" transform="matrix(0.4327 -0.9015 0.9015 0.4327 65.2056 409.2294)" class="st2" width="13.37" height="2"/>
	
		<rect x="357.03" y="188.88" transform="matrix(0.4327 -0.9015 0.9015 0.4327 37.2868 439.0079)" class="st2" width="20.9" height="2"/>
	
		<rect x="372.51" y="158.87" transform="matrix(0.4327 -0.9015 0.9015 0.4327 72.505 434.9612)" class="st2" width="18.73" height="2"/>
	
		<rect x="377.62" y="205.08" transform="matrix(0.4327 -0.9015 0.9015 0.4327 32.6886 464.1109)" class="st2" width="15.02" height="2"/>
	
		<rect x="388.41" y="175.31" transform="matrix(0.4327 -0.9015 0.9015 0.4327 67.644 460.1252)" class="st2" width="22.05" height="2"/>
	
		<rect x="317.18" y="158.78" transform="matrix(0.4327 -0.9015 0.9015 0.4327 43.6225 388.8897)" class="st2" width="27.29" height="2"/>
</g>
<g id="man">
	<polygon class="st0" points="377.81,550.62 498.11,571.77 549.26,333.78 377.81,333.78 	"/>
	<path class="st3" d="M460.71,345.3l-4.85-11.3l-38.26-18.09c-40.33-19.07-87.65-15.91-125.08,8.35l-13,8.41l-11.37,68.79l109.67,45
		l50.39,3.61L460.71,345.3z"/>
	<path class="st4" d="M400.93,313.54c0.98,1.99,0.53,4.38-1.1,5.88l-42.6,39.61c-7.2,7.08-16.52,4.68-16.52-5.71v-100h30.9
		L400.93,313.54z"/>
	<path class="st5" d="M386.72,254.91h-2.49V232.2c0-8.95-7.26-16.21-16.21-16.21l0,0h-29.85c-8.95,0-16.2,7.25-16.2,16.2v0.01v73.74
		c0,10.46,8.47,18.93,18.93,18.94h7.51c19.78-0.01,35.82-16.05,35.82-35.83v-4.59c0.01-1.93,1.08-3.7,2.79-4.6
		c5.65-3.07,9.17-8.99,9.17-15.42l0,0c0.02-5.24-4.21-9.51-9.45-9.53C386.73,254.91,386.73,254.91,386.72,254.91z"/>
	<path d="M325.88,277.66c-8.76-0.01-15.86-7.11-15.87-15.87v-9.63c0.01-2.15,1.74-3.88,3.89-3.89h24c2.15,0.01,3.88,1.74,3.89,3.89
		v9.63C341.78,270.57,334.66,277.67,325.88,277.66L325.88,277.66z M313.88,250.27c-1.04,0-1.89,0.85-1.89,1.89l0,0v9.63
		c0.01,7.66,6.22,13.86,13.88,13.86c7.65-0.01,13.85-6.21,13.86-13.86v-9.63c0-1.04-0.85-1.89-1.89-1.89l0,0H313.88z"/>
	<path d="M362.95,277.66c-8.76-0.01-15.86-7.11-15.87-15.87v-9.63c0-2.15,1.74-3.89,3.89-3.89l0,0h24c2.15,0,3.89,1.74,3.9,3.89
		v9.63c-0.01,8.78-7.13,15.88-15.91,15.87C362.96,277.66,362.95,277.66,362.95,277.66z M350.95,250.27c-1.04,0-1.89,0.85-1.89,1.89
		l0,0v9.63c-0.01,7.66,6.2,13.88,13.86,13.88c7.66,0.01,13.88-6.2,13.88-13.86c0-0.01,0-0.02,0-0.02v-9.63
		c-0.01-1.05-0.85-1.89-1.9-1.89L350.95,250.27L350.95,250.27z"/>
	<path d="M350.79,294.14h-6.76c-2.36,0-4.28-1.92-4.28-4.28l0,0v-17.88h2v17.88c0,1.26,1.02,2.28,2.28,2.28l0,0h6.76V294.14z"/>
	<path d="M357.47,307.02c-3.2-2.91-7.38-4.48-11.7-4.4c-2.04,0-4.07,0.34-6,1l-0.65-1.89c2.13-0.73,4.37-1.1,6.63-1.09
		c4.84-0.07,9.53,1.72,13.09,5L357.47,307.02z"/>
	<path d="M335.36,259.13c0.01,1.76-1.41,3.18-3.17,3.19s-3.18-1.41-3.19-3.17s1.41-3.18,3.17-3.19c0.02,0,0.04,0,0.06,0
		C333.96,255.99,335.35,257.4,335.36,259.13z"/>
	<path d="M359.08,259.13c0.01,1.76-1.41,3.18-3.17,3.19s-3.18-1.41-3.19-3.17s1.41-3.18,3.17-3.19c0.01,0,0.01,0,0.02,0
		C357.66,255.96,359.08,257.38,359.08,259.13z"/>
	<rect x="212.07" y="601.66" class="st0" width="149.45" height="91.39"/>
	<path class="st5" d="M185.62,349.73l-13.15-52.27c0,0-14.69,1.89-20.12-18.26c-1-3.56-1.9-7.4-2.79-11.26
		c-4.19-18.1,4.18-36.78,20.47-45.71l15.59-8.53c0,0,4-18.92,24.81-14.75c10.71,2.14,20,8.31,30,14.66
		c10.31,6.53,17.41,16.45,21.18,28.05l34.32,103.9L185.62,349.73z"/>
	<path class="st6" d="M320.14,232.94v5.59c-0.05,2.92,2.1,5.42,5,5.8c3.07,0.3,5.8-1.94,6.1-5c0.02-0.19,0.03-0.37,0.03-0.56v-9.65
		c0.01-1.94,1.58-3.51,3.52-3.51l0,0c1.94,0,3.51,1.57,3.52,3.51v9.41c-0.05,2.92,2.1,5.42,5,5.8c3.07,0.3,5.8-1.94,6.1-5
		c0.02-0.19,0.03-0.37,0.03-0.56v-9.65c0.01-1.94,1.58-3.51,3.52-3.51l0,0c1.94-0.01,3.51,1.56,3.52,3.5v0.01v9.41
		c-0.05,2.92,2.1,5.42,5,5.8c3.07,0.3,5.8-1.94,6.1-5c0.02-0.19,0.03-0.37,0.03-0.56v-9.65c0-1.94,1.57-3.51,3.51-3.51h0.01l0,0
		c1.94,0,3.51,1.57,3.51,3.51l0,0v9.42c-0.05,2.92,2.1,5.41,5,5.79c3.07,0.3,5.8-1.94,6.1-5c0.02-0.19,0.03-0.37,0.03-0.56v-5.83
		c-0.01-12.92-10.44-23.4-23.36-23.48h-18.76C330.68,209.46,320.16,219.97,320.14,232.94z"/>
	<path class="st2" d="M194.69,304.85l79.7,2.74c9.6,0.32,17.16,8.28,17,17.88l-2.84,166.79l-118.51-23.65l1.13-141.22
		c0.1-12.55,10.35-22.65,22.91-22.55C194.28,304.84,194.49,304.84,194.69,304.85z"/>
	<path d="M289.53,493.46l-120.5-24l1.14-142c0.1-13.11,10.81-23.66,23.93-23.55c0.21,0,0.42,0.01,0.62,0.01l79.7,2.74
		c10.07,0.4,18.02,8.72,17.95,18.8L289.53,493.46z M171.04,467.79l116.53,23.25l2.8-165.58c0.11-9.03-6.98-16.5-16-16.87l-79.7-2.74
		c-11.99-0.41-22.05,8.97-22.47,20.97c-0.01,0.19-0.01,0.39-0.01,0.58L171.04,467.79z"/>
	<path class="st6" d="M0,823.46L0,823.46c0.01,5.86,4.75,10.6,10.61,10.6h66.62c19.92,0,39.7-3.42,58.46-10.11l29.58-10.55
		c10.3-3.68,17.01-13.62,16.57-24.55l-7.61-187.19h85.81l43.19-128.49l-176.75-31.71c-37-7.16-71.78,17.74-73.61,55.4l-13.35,275.3
		c-0.76,15.68-9.88,29.75-23.89,36.85l-9.81,5C2.26,815.82,0.01,819.47,0,823.46z"/>
	<path class="st3" d="M111.06,823.46L111.06,823.46c0,5.85,4.75,10.6,10.6,10.6h66.67c19.92,0,39.69-3.42,58.45-10.11l29.59-10.55
		c10.29-3.68,17-13.63,16.56-24.55l-7.36-180.91c-0.13-3.31,2.45-6.1,5.77-6.23c0.08,0,0.16,0,0.23,0h79.56l43.1-128.54
		l-176.7-31.71c-37-7.16-71.78,17.74-73.61,55.4l-13.35,275.3c-0.76,15.68-9.88,29.75-23.89,36.85l-9.81,5
		C113.31,815.82,111.06,819.47,111.06,823.46z"/>
	<path class="st4" d="M240.6,247.14l13.56-13c5.15-4.93,13.31-4.75,18.24,0.39c0.34,0.36,0.66,0.73,0.96,1.13l0,0
		c5.73,7.55,4.25,18.3-3.3,24.03c-1.14,0.87-2.39,1.58-3.7,2.14l-9.4,4c-6.4,2.69-13.8,0.51-17.73-5.2l0,0
		C236.31,256.41,236.89,250.69,240.6,247.14z"/>
	<path class="st2" d="M179.37,291.69c-0.55,0-1.11,0-1.68-0.07c-5-0.42-9.64-4.35-13.06-11.09c-3.82-7.54-6.1-18.5-6.6-31.72l2-0.07
		c1.1,29.17,10.29,40.26,17.82,40.89c3.89,0.32,6.88-0.57,8.89-2.67l1.44,1.39C185.84,290.65,182.65,291.86,179.37,291.69z"/>
	<path class="st2" d="M195.23,284.38c-9.17,0-14.14-10.31-15.53-13.72c-4-9.92-4.68-28.93-4.7-29.73l2-0.06
		c0,0.19,0.65,19.45,4.55,29c1.37,3.37,6.57,14.19,15.95,12.24c3-0.54,5.43-2.76,6.24-5.7l1.9,0.62c-1.06,3.6-4.04,6.3-7.73,7
		C197.03,284.24,196.13,284.35,195.23,284.38z"/>
	<path class="st2" d="M199.77,264.46c-7,0-14.07-4.55-14.28-14.76c-0.06-2.77-0.13-6.87-0.21-11.31
		c-0.12-6.82-0.26-14.56-0.38-19.23h2c0.12,4.68,0.25,12.42,0.38,19.24c0.08,4.44,0.15,8.54,0.21,11.3c0.13,6.4,4,12.81,12.26,12.81
		h0.17c7.48-0.08,15-5.76,15-16.46c0-7.51,0-11.7,0-14h2c0,2.33,0,6.53,0,14.05c0,7-2.94,11.3-5.41,13.68
		c-3.13,2.95-7.26,4.62-11.57,4.68L199.77,264.46L199.77,264.46z"/>
	<path class="st2" d="M235.32,295.95c-17.77-24.27-2.49-52.05-2.34-52.33l1.75,1c-0.15,0.27-14.79,27,2.2,50.16L235.32,295.95z"/>
	<path class="st5" d="M239.54,334.56c11.57,5.25,39.46,19.79,39.46,19.79c5.63,3.36,12.77,0.57,12.88-6l0.38-22
		c0-0.41,0.33-0.75,0.75-0.75c0.09,0,0.17,0.01,0.25,0.04c2.53,0.73,9.68,4.05,15.27,18.79c8.07,21.3,10.1,27.74,19.43,35.08
		c22,17.27,62.88,47.88,62.88,47.88l27.23-72.63c6.67-17.81,28.53-28,44.35-17.81c19.28,12.37,25.37,40.74,22.49,76.79
		c-2.35,29.33-11.16,64.81-26.15,101s-44.47,47.24-77.19,22.8l-142.84-99.76c-2.66-1.87-5.43-3.58-8.29-5.13
		c-9.24-5-31.74-17.82-35.37-26.18c-4.34-10,1.08-15.13,4.19-15.64c-7.5-7-4.23-21,3.17-21.59c-6.23-4.17-7.94-12.23-5.46-17.18
		c3.72-7.45,10.6-7.32,20.89-3.45C215.23,344.81,218.93,325.2,239.54,334.56z"/>
	<rect x="228.8" y="341.33" transform="matrix(0.4582 -0.8889 0.8889 0.4582 -190.8156 396.4732)" width="2" height="26.84"/>
	<rect x="215.08" y="360.34" transform="matrix(0.4102 -0.912 0.912 0.4102 -214.8645 418.4415)" width="2" height="30"/>
	<rect x="207.59" y="385.5" transform="matrix(0.4952 -0.8688 0.8688 0.4952 -238.9134 381.2283)" width="2" height="21.4"/>
	<path class="st1" d="M466.23,739.38h-7.29c-13.88,0-25.13-11.26-25.12-25.14c0-2.03,0.25-4.04,0.73-6.01l87.82-355.35
		c2.77-11.22,12.83-19.1,24.39-19.1l0,0c20,0,35.72,7.8,28.93,37.55c-19.13,83.81-78.47,349-78.47,349
		C494.47,731.46,477.81,739.38,466.23,739.38z"/>
	<path class="st1" d="M552.61,743.24H353.95c-10.57,0-19.14-8.57-19.14-19.14l0,0V560.94c-0.01-26.35,21.35-47.71,47.7-47.72
		c0.01,0,0.01,0,0.02,0h122.35c26.35-0.01,47.72,21.35,47.73,47.71v0.01V743.24z"/>
	<path class="st0" d="M378.09,513.22L378.09,513.22c-23.89-0.01-43.26,19.35-43.28,43.24v177.42c0,5.17,4.18,9.35,9.35,9.36h77.2
		V556.46C421.34,532.57,401.98,513.22,378.09,513.22z"/>
	<path class="st2" d="M349.52,725.6h-2V556.46c-0.31-16.88,13.13-30.81,30.01-31.12s30.81,13.13,31.12,30.01
		c0.01,0.37,0.01,0.74,0,1.11v13.82h-2v-13.82c0.3-15.78-12.25-28.8-28.03-29.1s-28.8,12.25-29.1,28.03c-0.01,0.36-0.01,0.71,0,1.07
		V725.6z"/>
	<rect x="48.26" y="782.66" class="st2" width="51.86" height="2"/>
	<rect x="167.52" y="782.66" class="st2" width="80.96" height="2"/>
	<rect x="333.8" y="608.31" width="2" height="75.87"/>
	<path class="st2" d="M531.01,522.2c-7.71-5.22-16.82-8.01-26.13-8h-16.26v-2h16.26c9.71-0.02,19.21,2.88,27.25,8.32L531.01,522.2z"
		/>
	<path class="st3" d="M462.38,336.98c-15.82-10.15-37.68,0-44.35,17.81l-17.51,46.67l78.94,47.82c2.58-11.72,4.39-23.59,5.41-35.55
		C487.75,377.72,481.66,349.35,462.38,336.98z"/>
	<path class="st2" d="M404.14,394.68l-1.87-0.7l14.82-39.52c4.37-11.55,14.5-19.94,26.66-22.1l0.33,2
		c-11.46,2.03-21.01,9.94-25.12,20.83L404.14,394.68z"/>
</g>
<g id="cat">
	<rect x="482.53" y="724.78" class="st7" width="61.72" height="45.48"/>
	<path class="st8" d="M512.7,756.03h-8.61c5.9,0,10.68-4.78,10.68-10.68c0-0.57-0.05-1.14-0.14-1.71l-1.62-9.88v-55.51
		c0,0-32.06-26.32-75.38-26.32c-39.61,0-69.87,35.37-69.87,74v21.22c0,15.69,12.72,28.41,28.41,28.41h114.71
		c5.35,0.08,9.81-4.07,10.13-9.41C521.23,761.15,517.65,756.79,512.7,756.03z"/>
	<rect x="466.54" y="568.43" class="st2" width="2" height="140.86"/>
	<path class="st7" d="M473.6,656.72v55.86h33.18v-48.86l-24.79-12.26c-2.88-1.42-6.37-0.23-7.79,2.65
		C473.8,654.92,473.59,655.82,473.6,656.72z M544.23,651.46l-24.8,12.22v48.86h33.19v-55.82c0.02-3.21-2.57-5.84-5.78-5.86
		C545.93,650.86,545.04,651.06,544.23,651.46z"/>
	<path class="st8" d="M500.62,666.52l-34.69,42.77l20.86,16.42l69.69-8.89l6.53-8.38l-39.49-42.6c-2.55-2.75-6.14-4.31-9.89-4.31
		h-2.54C507.03,661.53,503.18,663.36,500.62,666.52z"/>
	<path d="M492.63,757.03h-91c-9.31-0.01-16.86-7.56-16.87-16.87h2c0.01,8.21,6.66,14.86,14.87,14.87h91V757.03z"/>
	<path class="st2" d="M531.78,745.21h-17c-0.29-14.85-22.51-10.21-22.51-10.21c-18.08,0-27.06-4.45-27.06-22.54v-0.78
		c-0.01-2.32,1.87-4.2,4.19-4.21c0.01,0,0.01,0,0.02,0h90.92c2.33,0,4.21,1.88,4.21,4.21v0.78c0,18.09-14.66,32.75-32.75,32.75
		C531.79,745.21,531.79,745.21,531.78,745.21z"/>
	<path d="M459.06,721.93l-1.87-0.72c8.23-21.44-2.48-45.5-23.93-53.73c-2.56-0.98-5.21-1.71-7.91-2.17l0.33-2
		c23.74,4.05,39.7,26.59,35.65,50.33c-0.48,2.83-1.24,5.6-2.27,8.27V721.93z"/>
	<path d="M470.34,745.21h-2c-0.01-5.42-4.4-9.81-9.82-9.82h-23.87v-2h23.87C465.05,733.4,470.33,738.68,470.34,745.21z"/>
	<path d="M511.65,739.01c-1.86-2.29-4.66-3.62-7.62-3.62h-20.12c-4.29,0-8.44-1.51-11.72-4.27l1.28-1.53
		c2.93,2.45,6.62,3.8,10.44,3.8h20.12c3.56,0,6.92,1.59,9.17,4.35L511.65,739.01z"/>
	<path class="st8" d="M475.23,652.65l31.53,31.53v-20.46l-24.77-12.26C479.72,650.34,476.98,650.82,475.23,652.65z"/>
	<path class="st8" d="M519.54,685.06l31.88-31.87c-1.67-2.23-4.69-2.95-7.19-1.73l-24.8,12.22v21.45
		C519.47,685.11,519.5,685.09,519.54,685.06z"/>
	<path class="st2" d="M523.52,665.84c-2.55-2.75-6.14-4.31-9.89-4.31h-2.54c-4.07,0-7.91,1.84-10.47,5l-5.15,6.35l12.19,12.19
		c3.28,3.28,8.6,3.28,11.88,0l0,0l11.31-11.31L523.52,665.84z"/>
	<path d="M498.31,701.73h-12.08c-1.15,0-2.08-0.93-2.08-2.08l0,0c0-1.15,0.93-2.08,2.08-2.08h12.11c1.15,0,2.08,0.93,2.08,2.08l0,0
		c0,1.15-0.93,2.08-2.08,2.08C498.33,701.73,498.32,701.73,498.31,701.73z"/>
	<path d="M541.47,701.73h-12.1c-1.15,0-2.08-0.93-2.08-2.08l0,0c0-1.15,0.93-2.08,2.08-2.08h12.1c1.15,0,2.08,0.93,2.09,2.08l0,0
		C543.55,700.8,542.62,701.73,541.47,701.73z"/>
	<path d="M516.95,704.46h-7.88c-2.06,0-3.36,1.84-2.08,3.1c0.07,0.07,0.15,0.14,0.24,0.2l3.64,2.82c1.28,0.91,3,0.91,4.28,0
		l3.65-2.82c0.09-0.06,0.17-0.13,0.24-0.2C520.32,706.31,519.02,704.46,516.95,704.46z"/>
	<path d="M506.29,718.86h-4.06c-2.75-0.01-5.3-1.47-6.69-3.85l1.73-1c1.04,1.78,2.94,2.87,5,2.86h4.1c3.16,0,5.72-2.56,5.72-5.72h2
		c-0.01,4.26-3.47,7.72-7.73,7.71C506.34,718.86,506.31,718.86,506.29,718.86z"/>
	<path d="M523.98,718.86h-4.1c-4.26,0-7.72-3.46-7.72-7.72h2c0.01,3.16,2.56,5.71,5.72,5.72h4.1c2.06,0.01,3.97-1.08,5-2.86l1.73,1
		C529.32,717.39,526.75,718.87,523.98,718.86z"/>
	<path class="st8" d="M540.62,771.16c-6.38,1.25-14.79,1.63-17.34-8.39c-1.14-4.49-2.26-15.77,12.74-19.53
		c16.11-4,28.89-13.16,28.43-32.37c13.45,8.3,14.37,19.12,14.37,24l0,0C578.82,755.65,554.3,768.46,540.62,771.16z"/>
	<path d="M535.53,744.33l-0.22-2c13.7-1.48,24.86-11.66,27.59-25.16l2,0.4C561.99,731.94,550.11,742.77,535.53,744.33z"/>
	<path class="st9" d="M572.23,638.01c3.24-0.01,5.86-2.65,5.85-5.89c0-0.97-0.25-1.92-0.71-2.77
		c-15.68-29.52-58.94-50.73-109.86-50.73s-94.17,21.21-109.85,50.73c-1.55,2.84-0.5,6.4,2.35,7.95c0.86,0.47,1.82,0.71,2.79,0.71
		H572.23z"/>
</g>
</svg>
